<svg xmlns="http://www.w3.org/2000/svg" viewBox="0 0 900 900" role="img" aria-label="Jiai seal"><rect x="40" y="40" width="820" height="820" rx="70" fill="var(--seal, #C43A2C)"/><path fill="#fff" d="M524.58 150.38999999999996Q525.9 148.73999999999995 528.0450000000001 146.09999999999997Q530.19 143.45999999999998 531.6750000000001 142.14Q533.1600000000001 140.81999999999996 534.48 140.81999999999996Q536.46 140.81999999999996 544.38 146.75999999999996Q552.3 152.69999999999996 559.23 159.29999999999995Q566.1600000000001 165.89999999999998 566.1600000000001 168.20999999999998Q564.51 170.18999999999997 560.715 172.00499999999997Q556.9200000000001 173.81999999999996 552.3 175.13999999999996V317.37Q552.96 358.28999999999996 554.94 394.91999999999996Q551.97 398.54999999999995 542.73 402.67499999999995Q533.49 406.79999999999995 525.57 406.79999999999995Q519.3 406.79999999999995 519.3 400.2Q519.3 399.53999999999996 520.62 391.28999999999996V383.37H382.68V395.90999999999997Q382.68 397.89 378.885 400.695Q375.09000000000003 403.5 369.15000000000003 405.645Q363.21000000000004 407.78999999999996 356.94 407.78999999999996Q352.98 407.78999999999996 350.505 405.80999999999995Q348.03 403.83 348.03 401.19Q349.35 381.71999999999997 350.34000000000003 363.405Q351.33 345.09 351.65999999999997 315.39V210.77999999999997Q351.65999999999997 169.19999999999996 347.37 143.12999999999997L384.99 159.62999999999997H421.29Q424.26 148.07999999999996 425.90999999999997 134.54999999999995Q427.56 121.01999999999998 427.56 109.13999999999999Q427.56 102.86999999999995 427.23 99.89999999999998L478.71000000000004 110.45999999999998Q477.06 117.71999999999997 467.49 118.04999999999995Q452.97 139.49999999999997 433.17 159.62999999999997H517.32ZM520.62 229.25999999999996V169.19999999999996H382.68V229.25999999999996ZM520.62 301.2V238.82999999999998H382.68V301.2ZM382.68 310.10999999999996V373.79999999999995H520.62V310.10999999999996Z"/><path fill="#fff" d="M308.1 603.6999999999999Q308.1 599.0799999999999 311.235 595.1199999999999Q314.37 591.16 319.32 588.52Q328.56 583.5699999999999 335.49 572.68Q342.42 561.79 342.09000000000003 549.25H347.04Q350.01 558.8199999999999 351.0 566.74H386.97Q383.34000000000003 565.75 379.38 562.4499999999999Q379.05 553.54 374.265 543.145Q369.48 532.75 363.54 525.49L366.51 523.51L348.69 523.8399999999999L330.87 523.51L329.88 517.24Q383.34000000000003 513.6099999999999 444.225 504.53499999999997Q505.11 495.46 541.74 485.89Q564.1800000000001 508.33 564.1800000000001 512.9499999999999Q564.1800000000001 514.93 558.5699999999999 514.27L549.6600000000001 512.62Q529.2 515.26 515.01 516.25Q534.48 524.5 542.07 528.79Q549.6600000000001 533.0799999999999 549.6600000000001 535.06Q549.6600000000001 536.38 546.69 537.04L540.75 538.3599999999999Q526.89 552.22 504.78 566.74H552.63L560.22 558.49Q561.54 557.17 564.8399999999999 553.7049999999999Q568.14 550.24 570.12 550.24Q572.1 550.24 578.7 556.345Q585.3 562.4499999999999 591.24 569.2149999999999Q597.1800000000001 575.98 597.1800000000001 578.29Q595.53 580.27 592.725 580.93Q589.9200000000001 581.5899999999999 584.97 581.92Q577.71 587.8599999999999 565.995 594.9549999999999Q554.28 602.05 544.38 606.3399999999999Q555.6 612.9399999999999 561.21 621.1899999999999Q566.8199999999999 629.4399999999999 566.8199999999999 637.03Q566.8199999999999 643.9599999999999 563.025 648.415Q559.23 652.87 553.29 652.87Q548.01 652.87 542.4000000000001 649.24Q538.77 636.04 527.385 621.1899999999999Q516.0 606.3399999999999 503.13 596.4399999999999L506.1 593.8Q525.9 597.0999999999999 540.4200000000001 604.03Q546.69 592.15 552.63 576.31H351.33Q351.0 589.8399999999999 346.05 599.74Q341.1 609.64 333.84000000000003 614.26Q329.22 617.56 322.62 617.56Q316.68 617.56 312.39 613.93Q308.1 610.3 308.1 603.6999999999999ZM404.79 552.88Q404.79 557.8299999999999 401.985 561.625Q399.18 565.42 394.89 566.74H492.57000000000005Q498.84000000000003 555.1899999999999 504.285 541.3299999999999Q509.73 527.47 512.04 516.5799999999999Q480.36 519.55 435.15 521.8599999999999Q450.99 527.47 458.25 535.39Q465.51 543.31 465.51 551.56Q465.51 557.8299999999999 461.385 562.285Q457.26 566.74 451.32000000000005 566.74Q445.05 566.74 439.44 561.46Q439.44 552.22 435.645 541.3299999999999Q431.85 530.4399999999999 426.57 522.1899999999999Q386.97 523.51 367.17 523.51Q386.64 528.13 395.71500000000003 536.2149999999999Q404.79 544.3 404.79 552.88ZM430.20000000000005 582.91Q455.61 582.5799999999999 467.82 590.5Q480.03 598.42 480.03 608.65Q480.03 614.5899999999999 476.4 618.55Q472.77 622.51 466.83000000000004 622.51Q462.54 622.51 458.25 620.1999999999999Q454.95000000000005 610.96 446.04 601.39Q437.13 591.8199999999999 427.56 585.88ZM479.37 742.63Q526.23 758.47 596.85 761.11V765.0699999999999Q579.03 770.35 574.4100000000001 793.78Q537.12 788.5 507.915 779.425Q478.71000000000004 770.35 456.27 755.8299999999999Q397.53 785.86 308.1 793.4499999999999L306.12 788.17Q385.65 773.65 438.12 742.3Q418.32 724.81 406.44 703.03Q386.64 719.53 362.22 732.73Q337.8 745.93 313.05 753.85L310.74 749.23Q340.11 733.72 367.33500000000004 708.475Q394.56 683.23 409.74 657.8199999999999Q402.15 655.8399999999999 399.67499999999995 651.055Q397.2 646.27 397.2 636.37V612.9399999999999Q397.2 597.76 395.88 588.1899999999999Q414.36 593.47 421.45500000000004 596.605Q428.55 599.74 428.55 602.05Q428.55 603.37 426.57 604.6899999999999L422.28 607.66V631.42Q422.28 634.39 423.93 635.2149999999999Q425.58000000000004 636.04 432.51 636.04H460.23Q481.68 636.04 485.31 635.71Q490.26 635.05 491.90999999999997 633.0699999999999Q495.21000000000004 628.12 500.82000000000005 610.63H504.45000000000005L505.44 633.4Q511.05 635.38 513.03 637.69Q515.01 640.0 515.01 643.63Q515.01 649.5699999999999 510.225 652.8699999999999Q505.44 656.17 493.23 657.655Q481.02 659.14 457.92 659.14H429.21000000000004Q446.37 666.4 446.37 669.6999999999999Q446.37 670.6899999999999 443.07000000000005 671.3499999999999L437.79 672.01Q431.19 679.93 427.56 683.89H496.20000000000005L504.78 675.64Q506.43 674.3199999999999 510.225 670.855Q514.02 667.39 516.0 667.39Q517.98 667.39 524.415 673.165Q530.85 678.9399999999999 536.46 685.54Q542.0699999999999 692.14 542.0699999999999 694.4499999999999Q540.4200000000001 696.43 537.45 697.2549999999999Q534.48 698.0799999999999 527.88 698.74Q508.40999999999997 724.15 479.37 742.63ZM373.44 593.47 378.39 593.8Q380.7 603.04 380.7 612.28Q380.7 627.46 374.43 638.02Q368.16 648.5799999999999 359.25 652.87Q353.97 655.51 348.69 655.51Q343.74 655.51 339.945 653.2Q336.15 650.89 334.83 646.93Q334.17 643.63 334.17 642.31Q334.17 632.41 345.72 626.8Q355.95 623.17 364.2 613.93Q372.45 604.6899999999999 373.44 593.47ZM493.56 693.46H417.65999999999997L411.39 699.0699999999999Q426.9 718.2099999999999 453.96000000000004 732.0699999999999Q478.71000000000004 714.5799999999999 493.56 693.46Z"/></svg>